<svg id="ab68c390-6f1f-4fbb-b841-490399a425ac" data-name="Layer 1" xmlns="http://www.w3.org/2000/svg" width="758.69702" height="683.65748" viewBox="0 0 758.69702 683.65748"><path d="M948.76459,379.17126c0,118.6-76.18,219.4-182.28,256.14a272.75829,272.75829,0,0,1-132.97,11.26q-6.345-1.035-12.6-2.38-8.475-1.79994-16.75-4.14c-113.91-32.06-197.4-136.72-197.4-260.88,0-149.67005,121.33-271,271-271S948.76459,229.50121,948.76459,379.17126Z" transform="translate(-220.65149 -108.17126)" fill="#e6e6e6"/><path d="M508.02782,462.81406a2.04293,2.04293,0,0,0-.83916,2.76159L609.07745,656.4151a2.04292,2.04292,0,0,0,2.76159.83915l144.02977-76.8972a2.04291,2.04291,0,0,0,.83916-2.76158L654.81918,386.756a2.04292,2.04292,0,0,0-2.76159-.83916Z" transform="translate(-220.65149 -108.17126)" fill="#3f3d56"/><path d="M521.41582,468.39061l93.23866,174.6345,127.82633-68.2446L649.24216,400.144Zm-8.09982,4.324.01794-.009-.01993.01Z" transform="translate(-220.65149 -108.17126)" fill="#fff"/><path d="M553.6455,487.59c-1.98586,1.06025-2.40861,4.15533-.944,6.89846s4.27157,4.11385,6.25743,3.0536l93.61935-49.98318c1.98586-1.06025,2.40861-4.15532.94406-6.89846s-4.27158-4.11384-6.25744-3.0536Z" transform="translate(-220.65149 -108.17126)" fill="#555555"/><path d="M565.18008,509.19442c-1.98586,1.06025-2.40861,4.15532-.944,6.89846s4.27157,4.11384,6.25743,3.0536l93.61935-49.98318c1.98586-1.06025,2.40861-4.15533.94406-6.89846s-4.27158-4.11385-6.25744-3.0536Z" transform="translate(-220.65149 -108.17126)" fill="#555555"/><path d="M576.71466,530.79889c-1.98586,1.06024-2.40861,4.15532-.944,6.89845s4.27157,4.11385,6.25743,3.0536l93.61935-49.98318c1.98586-1.06024,2.40861-4.15532.94406-6.89846s-4.27158-4.11384-6.25744-3.05359Z" transform="translate(-220.65149 -108.17126)" fill="#555555"/><path d="M588.24924,552.40335c-1.98586,1.06025-2.40861,4.15533-.944,6.89846s4.27157,4.11384,6.25743,3.0536L687.182,512.37223c1.98586-1.06025,2.40861-4.15533.94406-6.89846s-4.27158-4.11384-6.25744-3.0536Z" transform="translate(-220.65149 -108.17126)" fill="#555555"/><path d="M599.78382,574.00782c-1.98586,1.06024-2.40861,4.15532-.944,6.89846s4.27157,4.11384,6.25743,3.05359l93.61935-49.98317c1.98586-1.06025,2.40861-4.15533.94406-6.89846s-4.27158-4.11385-6.25744-3.0536Z" transform="translate(-220.65149 -108.17126)" fill="#555555"/><polygon points="397.312 272.193 482.142 277.373 505.899 206.525 431.494 190.804 397.312 272.193" fill="#2f2e41"/><circle cx="458.49138" cy="220.35057" r="33.92727" fill="#ffb8b8"/><polygon points="513.613 288.5 458.613 297.5 444.113 240 482.613 236.5 513.613 288.5" fill="#ffb8b8"/><path d="M766.26459,632.67126l.22,2.64a272.75829,272.75829,0,0,1-132.97,11.26l-.29,4.69a16.04948,16.04948,0,0,1-21.79,13.94l9.48-21.01,11.99-26.59,7.86-17.43-2.83-60.3-.3-6.24-.37-7.96,5.12-.03,36.4-.22,34.69-.22,5.29-.03C751.93458,565.97125,779.30457,599.13122,766.26459,632.67126Z" transform="translate(-220.65149 -108.17126)" fill="#2f2e41"/><path d="M718.26459,524.67126l-81,9-3-56c-9.50586-24.24437-3.23083-45.88407,16.49768-65.30332l4.01074-15.87581a23.504,23.504,0,0,1,17.36154-17.112h0c13.25891-7.60427,28.278-11.22877,45.13-10.70881h0a33.67554,33.67554,0,0,1,21.32445,33.98664C735.10354,446.66755,728.84687,487.86445,718.26459,524.67126Z" transform="translate(-220.65149 -108.17126)" fill="#555555"/><path d="M695.26459,430.67126l-.65,4.91-10.35,78.09-5.48,11.75-1.79,3.84-41.73,89.41-1.75,27.9-.29,4.69a16.02932,16.02932,0,1,1-30.73005-7.28l1.67005-3.93,9.1-21.38,24.67-78.8,2.03-6.5,2.42-7.73,6.88-21.97,10.96-67.56,1.04-6.44Z" transform="translate(-220.65149 -108.17126)" fill="#ffb8b8"/><path d="M701.26459,437.67126c-15.71569-5.6474-30.79174-6.2477-45,0l4.63746-40.19515a19.17079,19.17079,0,0,1,18.15219-19.79378h0a19.17079,19.17079,0,0,1,20.15525,18.20261Z" transform="translate(-220.65149 -108.17126)" fill="#555555"/><path d="M653.47726,288.437s-17.54275,6.40185-17.99328,29.67661a42.0195,42.0195,0,0,0,1.55337,11.58923c1.13738,4.27759,2.05005,13.55883-5.59947,25.931a239.87667,239.87667,0,0,0-13.53316,24.91407v0l19.75291,1.906,3.26631-32.74488a162.53442,162.53442,0,0,1,11.6113-46.16706l.12766-.3076s9.06208,15.75034,26.28522,15.26518l-6.32439-5.97785s21.572,8.12365,33.30213,9.75471a7.42867,7.42867,0,0,1,4.47386,12.35311q-.10323.113-.21082.22682c-7.17342,7.58927-21.451,25.22827-12.45819,38.51816s1.71539,17.18849,1.71539,17.18849l13.32454-7.76254,6.04716-3.86395.13862,4.9209,31.88188-4.59169s8.57692-1.4728-10.46557-21.86681c0,0-5.1017-7.98426-3.16707-15.049a35.34634,35.34634,0,0,0,.8776-16.56161C733.29957,302.842,715.7883,257.44733,653.47726,288.437Z" transform="translate(-220.65149 -108.17126)" fill="#2f2e41"/><ellipse cx="457.11311" cy="674.15748" rx="122" ry="7" fill="#e6e6e6"/><path d="M221.39417,430.704a1.001,1.001,0,0,0-.70884,1.22374l27.29015,102.4268a1.001,1.001,0,0,0,1.22374.70883l77.30324-20.59633a1.001,1.001,0,0,0,.70884-1.22375L299.92116,410.81654a1.001,1.001,0,0,0-1.22375-.70884Z" transform="translate(-220.65149 -108.17126)" fill="#f2f2f2"/><path d="M240.38956,447.61993c-1.06584.284-1.61327,1.71334-1.221,3.18563s1.57831,2.43979,2.64415,2.15581l50.24711-13.38762c1.06584-.284,1.61328-1.71334,1.221-3.18562s-1.57832-2.43979-2.64416-2.15582Z" transform="translate(-220.65149 -108.17126)" fill="#fff"/><path d="M243.479,459.21542c-1.06584.284-1.61327,1.71334-1.221,3.18562s1.57831,2.43979,2.64415,2.15582l50.24711-13.38762c1.06584-.284,1.61328-1.71334,1.221-3.18563s-1.57832-2.43979-2.64416-2.15581Z" transform="translate(-220.65149 -108.17126)" fill="#fff"/><path d="M246.56846,470.8109c-1.06584.284-1.61327,1.71334-1.221,3.18563s1.57831,2.43979,2.64415,2.15581l50.24711-13.38761c1.06584-.284,1.61328-1.71335,1.221-3.18563s-1.57832-2.43979-2.64416-2.15581Z" transform="translate(-220.65149 -108.17126)" fill="#fff"/><path d="M249.65791,482.40639c-1.06584.284-1.61327,1.71334-1.221,3.18563s1.57831,2.43979,2.64415,2.15581l50.24711-13.38762c1.06584-.284,1.61328-1.71334,1.221-3.18563s-1.57832-2.43979-2.64416-2.15581Z" transform="translate(-220.65149 -108.17126)" fill="#fff"/><path d="M252.74736,494.00188c-1.06584.284-1.61327,1.71334-1.221,3.18562s1.57831,2.43979,2.64415,2.15581l50.24711-13.38761c1.06584-.284,1.61327-1.71334,1.221-3.18563s-1.57832-2.43979-2.64416-2.15581Z" transform="translate(-220.65149 -108.17126)" fill="#fff"/><path d="M255.83681,505.59736c-1.06584.284-1.61327,1.71334-1.221,3.18563s1.57831,2.43979,2.64415,2.15581l50.24711-13.38762c1.06584-.284,1.61327-1.71334,1.221-3.18562s-1.57832-2.43979-2.64416-2.15582Z" transform="translate(-220.65149 -108.17126)" fill="#fff"/><path d="M418.94811,791.597c0,.12773.44824.2317,1,.2317h106c.55176,0,1-.104,1-.2317v-18.5366c0-.12773-.44824-.23171-1-.23171h-106c-.55176,0-1,.104-1,.23171Z" transform="translate(-220.65149 -108.17126)" fill="#f2f2f2"/><path d="M440.18422,788.35313c0,.25558,1.24024.46342,2.76389.46342s2.76389-.20784,2.76389-.46342V776.30434c0-.25557-1.24024-.46341-2.76389-.46341s-2.76389.20784-2.76389.46341Z" transform="translate(-220.65149 -108.17126)" fill="#fff"/><path d="M452.18422,788.35313c0,.25558,1.24024.46342,2.76389.46342s2.76389-.20784,2.76389-.46342V776.30434c0-.25557-1.24024-.46341-2.76389-.46341s-2.76389.20784-2.76389.46341Z" transform="translate(-220.65149 -108.17126)" fill="#fff"/><path d="M464.18422,788.35313c0,.25558,1.24024.46342,2.76389.46342s2.76389-.20784,2.76389-.46342V776.30434c0-.25557-1.24024-.46341-2.76389-.46341s-2.76389.20784-2.76389.46341Z" transform="translate(-220.65149 -108.17126)" fill="#fff"/><path d="M476.18422,788.35313c0,.25558,1.24024.46342,2.76389.46342s2.76389-.20784,2.76389-.46342V776.30434c0-.25557-1.24024-.46341-2.76389-.46341s-2.76389.20784-2.76389.46341Z" transform="translate(-220.65149 -108.17126)" fill="#fff"/><path d="M488.18422,788.35313c0,.25558,1.24024.46342,2.76389.46342s2.76389-.20784,2.76389-.46342V776.30434c0-.25557-1.24024-.46341-2.76389-.46341s-2.76389.20784-2.76389.46341Z" transform="translate(-220.65149 -108.17126)" fill="#fff"/><path d="M500.18422,788.35313c0,.25558,1.24024.46342,2.76389.46342s2.76389-.20784,2.76389-.46342V776.30434c0-.25557-1.24024-.46341-2.76389-.46341s-2.76389.20784-2.76389.46341Z" transform="translate(-220.65149 -108.17126)" fill="#fff"/><path d="M224.22977,356.78871a1.001,1.001,0,0,0-.41117,1.35312l49.92345,93.50748a1.001,1.001,0,0,0,1.35313.41117l70.57168-37.67807a1.001,1.001,0,0,0,.41117-1.35313L296.15458,319.5218a1.001,1.001,0,0,0-1.35312-.41117Z" transform="translate(-220.65149 -108.17126)" fill="#e6e6e6"/><path d="M230.78962,359.5211l45.68506,85.56739L339.107,411.65,293.422,326.08165Zm-3.96875,2.11866.00879-.0044-.00976.00488Z" transform="translate(-220.65149 -108.17126)" fill="#fff"/><path d="M246.58152,368.9284c-.973.5195-1.18017,2.036-.46257,3.3801s2.093,2.0157,3.066,1.4962L295.05656,349.314c.973-.51949,1.18017-2.036.46257-3.3801s-2.093-2.0157-3.066-1.4962Z" transform="translate(-220.65149 -108.17126)" fill="#555555"/><path d="M252.23323,379.51415c-.973.5195-1.18017,2.036-.46257,3.38011s2.093,2.0157,3.066,1.4962l45.87159-24.49075c.973-.5195,1.18017-2.036.46257-3.38011s-2.093-2.0157-3.066-1.4962Z" transform="translate(-220.65149 -108.17126)" fill="#555555"/><path d="M257.88494,390.0999c-.973.5195-1.18017,2.036-.46257,3.38011s2.093,2.0157,3.066,1.4962L306.36,370.48546c.973-.5195,1.18017-2.036.46257-3.38011s-2.093-2.0157-3.066-1.4962Z" transform="translate(-220.65149 -108.17126)" fill="#555555"/><path d="M263.53665,400.68565c-.973.5195-1.18017,2.036-.46257,3.38011s2.093,2.0157,3.066,1.4962l45.87159-24.49075c.973-.5195,1.18017-2.036.46257-3.3801s-2.093-2.0157-3.066-1.4962Z" transform="translate(-220.65149 -108.17126)" fill="#555555"/><path d="M269.18836,411.27141c-.973.5195-1.18017,2.036-.46257,3.3801s2.093,2.0157,3.066,1.4962l45.8716-24.49075c.973-.51949,1.18016-2.036.46256-3.3801s-2.093-2.0157-3.066-1.4962Z" transform="translate(-220.65149 -108.17126)" fill="#555555"/><path d="M274.84007,421.85716c-.973.5195-1.18017,2.036-.46256,3.38011s2.093,2.0157,3.066,1.4962l45.8716-24.49075c.973-.5195,1.18017-2.036.46256-3.38011s-2.093-2.0157-3.066-1.4962Z" transform="translate(-220.65149 -108.17126)" fill="#555555"/><path d="M909.98433,595.74618a1.001,1.001,0,0,0-1.36967.35216l-53.92761,91.25685a1.001,1.001,0,0,0,.35216,1.36966l68.8731,40.70009a1.001,1.001,0,0,0,1.36966-.35216l53.92761-91.25685a1.001,1.001,0,0,0-.35216-1.36967Z" transform="translate(-220.65149 -108.17126)" fill="#e6e6e6"/><path d="M911.06023,602.77043l-49.348,83.50855,61.12415,36.12171,49.34882-83.50906Zm-3.873-2.289.00833.00522-.00925-.0058Z" transform="translate(-220.65149 -108.17126)" fill="#fff"/><path d="M911.23322,621.15115c-.94961-.56117-2.3528.05024-3.12795,1.362s-.63392,2.8358.31569,3.397l44.76751,26.45505c.94961.56117,2.3528-.05023,3.128-1.362s.63392-2.83581-.31569-3.397Z" transform="translate(-220.65149 -108.17126)" fill="#555555"/><path d="M905.12821,631.48211c-.94961-.56116-2.3528.05024-3.128,1.362s-.63391,2.83581.3157,3.397l44.76751,26.45506c.94961.56116,2.3528-.05024,3.128-1.362s.63391-2.8358-.3157-3.397Z" transform="translate(-220.65149 -108.17126)" fill="#555555"/><path d="M899.0232,641.81308c-.94961-.56117-2.3528.05024-3.128,1.362s-.63392,2.8358.3157,3.397l44.76751,26.45505c.94961.56117,2.3528-.05024,3.128-1.362s.63391-2.8358-.3157-3.397Z" transform="translate(-220.65149 -108.17126)" fill="#555555"/><path d="M892.91819,652.144c-.94962-.56116-2.35281.05024-3.128,1.362s-.63392,2.83581.31569,3.397L934.87343,683.358c.94962.56116,2.35281-.05024,3.128-1.362s.63392-2.83581-.31569-3.397Z" transform="translate(-220.65149 -108.17126)" fill="#555555"/><path d="M886.81317,662.475c-.94961-.56117-2.3528.05023-3.128,1.362s-.63391,2.83581.3157,3.397l44.76751,26.455c.94961.56117,2.3528-.05024,3.128-1.362s.63392-2.8358-.3157-3.397Z" transform="translate(-220.65149 -108.17126)" fill="#555555"/><path d="M880.70816,672.806c-.94961-.56117-2.3528.05024-3.128,1.362s-.63391,2.8358.3157,3.397l44.76751,26.455c.94961.56117,2.3528-.05023,3.128-1.362s.63391-2.83581-.3157-3.397Z" transform="translate(-220.65149 -108.17126)" fill="#555555"/></svg>